<svg xmlns="http://www.w3.org/2000/svg" width="11.201" height="16" viewBox="0 0 11.201 16">
  <path id="bx-bulb" d="M6.533,15.733h4.8v1.6h-4.8ZM12.859,10.7a5.352,5.352,0,0,0,1.675-3.769,5.6,5.6,0,1,0-11.2,0,5.33,5.33,0,0,0,1.681,3.784c.287.335.583.68.868,1.079a6.839,6.839,0,0,1,.473,1.537h-.62v1.6h6.4v-1.6h-.619a6.964,6.964,0,0,1,.474-1.54C12.271,11.392,12.57,11.041,12.859,10.7Zm-2.179.17a8.423,8.423,0,0,0-.805,2.46H7.994a8.26,8.26,0,0,0-.809-2.464c-.328-.449-.642-.838-.972-1.211l.016.018A3.789,3.789,0,0,1,4.934,6.935a4,4,0,1,1,8,0,3.8,3.8,0,0,1-1.292,2.73c-.3.35-.637.746-.962,1.21Z" transform="translate(-3.333 -1.333)" fill="currentColor"/>
</svg>
