<svg xmlns="http://www.w3.org/2000/svg" width="16" height="16.001" viewBox="0 0 16 16.001">
  <path id="bx-pencil" d="M15.226,1.58a.842.842,0,0,0-1.19,0L3.089,12.528a.84.84,0,0,0-.22.385v.006l-.843,3.369a.8.8,0,0,0-.025.2.842.842,0,0,0,.843.843.822.822,0,0,0,.21-.027H3.046l3.369-.843a.843.843,0,0,0,.392-.221L17.754,5.3a.842.842,0,0,0,0-1.19L15.227,1.583ZM5.779,14.889,4,15.333l.446-1.78,7.661-7.661,1.335,1.335L5.781,14.889Zm8.852-8.852L13.3,4.7l1.335-1.335L15.966,4.7Z" transform="translate(-2 -1.334)" fill="currentColor"/>
</svg>
