<svg xmlns="http://www.w3.org/2000/svg" width="14.4" height="16" viewBox="0 0 14.4 16">
  <g id="bx-trash" transform="translate(-1.999 -1.333)">
    <path id="Path_82" data-name="Path 82" d="M3.6,16.533a.8.8,0,0,0,.8.8H14a.8.8,0,0,0,.8-.8h0V6.133h1.6v-1.6H13.2v-2.4a.8.8,0,0,0-.8-.8H6a.8.8,0,0,0-.8.8h0v2.4H2v1.6H3.6v10.4Zm3.2-13.6h4.8v1.6H6.8ZM6,6.133h7.2v9.6h-8v-9.6Z" fill="currentColor"/>
    <path id="Path_83" data-name="Path 83" d="M6,6.667H7.333V12H6Zm2.667,0H10V12H8.667Z" transform="translate(1.2 1.777)" fill="currentColor"/>
  </g>
</svg>
